<?xml version="1.0" standalone="no"?>
<!DOCTYPE svg PUBLIC "-//W3C//DTD SVG 20010904//EN"
 "http://www.w3.org/TR/2001/REC-SVG-20010904/DTD/svg10.dtd">
<svg version="1.0" xmlns="http://www.w3.org/2000/svg"
 width="180.000000pt" height="180.000000pt" viewBox="0 0 180.000000 180.000000"
 preserveAspectRatio="xMidYMid meet">
<metadata>
Created by potrace 1.14, written by Peter Selinger 2001-2017
</metadata>
<g transform="translate(0.000000,180.000000) scale(0.100000,-0.100000)"
fill="#000000" stroke="none">
<path d="M0 900 l0 -900 900 0 900 0 0 900 0 900 -900 0 -900 0 0 -900z m1065
635 c105 -51 144 -128 152 -297 l6 -108 -101 0 -100 0 -4 95 c-3 88 -5 97 -31
122 -22 23 -36 28 -76 28 -58 0 -86 -21 -101 -74 -13 -48 -13 -774 0 -822 15
-53 43 -74 101 -74 40 0 54 5 76 28 l28 27 3 165 3 165 -50 0 -51 0 0 95 0 95
151 0 151 0 -4 -274 -3 -273 -35 -69 c-27 -53 -46 -76 -83 -101 -59 -39 -141
-57 -229 -50 -124 11 -207 69 -250 176 -23 55 -23 61 -23 501 0 440 0 446 23
501 12 31 38 73 58 93 65 66 128 87 252 82 64 -3 94 -10 137 -31z"/>
</g>
</svg>
